<svg xmlns="http://www.w3.org/2000/svg" viewBox="0 0 64 64">
  <rect width="64" height="64" rx="14" fill="#080706"/>
  <g fill="none" stroke="#d9b879" stroke-linecap="round" stroke-linejoin="round">
    <path d="M12 15v33M52 15v33" stroke-width="2.6"/>
    <path d="M16 13l14 9M48 13L34 22" stroke-width="2.2"/>
    <path d="M12 50l20 10 20-10" stroke-width="2.4"/>
    <path d="M15 47l17 9 17-9" stroke-width="1.7" opacity="0.9"/>
    <path d="M20 41h24" stroke-width="2.8"/>
    <path d="M23 38h18" stroke-width="1.7" opacity="0.95"/>
    <path d="M22 38c0-6 4.8-10.5 10-10.5S42 32 42 38" stroke-width="2.4"/>
    <path d="M26 43l4 3h8l4-3" stroke-width="1.8"/>
    <circle cx="32" cy="23" r="1.5" fill="#d9b879" stroke="none"/>
    <circle cx="32" cy="19" r="1.3" fill="#d9b879" stroke="none"/>
    <circle cx="32" cy="15.5" r="1.1" fill="#d9b879" stroke="none"/>
  </g>
</svg>
